<svg width="54" height="54" viewBox="0 0 54 54" fill="none" xmlns="http://www.w3.org/2000/svg">
<path d="M27 1.92857C27 1.41708 26.7968 0.926543 26.4351 0.564865C26.0735 0.203188 25.5829 0 25.0714 0C24.5599 0 24.0694 0.203188 23.7077 0.564865C23.346 0.926543 23.1429 1.41708 23.1429 1.92857V2.57143H8.35714C6.14069 2.57143 4.01502 3.45191 2.44775 5.01918C0.880482 6.58645 0 8.71212 0 10.9286V35.3571C0 37.5736 0.880482 39.6993 2.44775 41.2665C4.01502 42.8338 6.14069 43.7143 8.35714 43.7143H14.5234L10.7306 48.2657C10.4032 48.6589 10.2455 49.166 10.292 49.6755C10.3385 50.1849 10.5855 50.6551 10.9787 50.9824C11.3719 51.3098 11.879 51.4675 12.3885 51.421C12.8979 51.3745 13.3681 51.1274 13.6954 50.7343L19.5429 43.7143H28.5634C29.0188 42.1513 29.994 40.7906 31.3277 39.8571H8.35714C7.16367 39.8571 6.01908 39.383 5.17516 38.5391C4.33125 37.6952 3.85714 36.5506 3.85714 35.3571V10.9286C3.85714 8.44457 5.87314 6.42857 8.35714 6.42857H43.0714C45.5554 6.42857 47.5714 8.44457 47.5714 10.9286V24.7551C48.7623 25.5844 49.735 26.6893 50.4066 27.9756C51.0783 29.262 51.4289 30.6917 51.4286 32.1429V10.9286C51.4286 9.8311 51.2124 8.74437 50.7924 7.73043C50.3724 6.7165 49.7569 5.79521 48.9808 5.01918C48.2048 4.24315 47.2835 3.62756 46.2696 3.20758C45.2556 2.78759 44.1689 2.57143 43.0714 2.57143H27V1.92857ZM10.2857 14.7857C10.2857 14.2742 10.4889 13.7837 10.8506 13.422C11.2123 13.0603 11.7028 12.8571 12.2143 12.8571H22.5C23.0115 12.8571 23.502 13.0603 23.8637 13.422C24.2254 13.7837 24.4286 14.2742 24.4286 14.7857C24.4286 15.2972 24.2254 15.7877 23.8637 16.1494C23.502 16.5111 23.0115 16.7143 22.5 16.7143H12.2143C11.7028 16.7143 11.2123 16.5111 10.8506 16.1494C10.4889 15.7877 10.2857 15.2972 10.2857 14.7857ZM12.2143 20.5714C11.7028 20.5714 11.2123 20.7746 10.8506 21.1363C10.4889 21.498 10.2857 21.9885 10.2857 22.5C10.2857 23.0115 10.4889 23.502 10.8506 23.8637C11.2123 24.2254 11.7028 24.4286 12.2143 24.4286H28.9286C29.4401 24.4286 29.9306 24.2254 30.2923 23.8637C30.654 23.502 30.8571 23.0115 30.8571 22.5C30.8571 21.9885 30.654 21.498 30.2923 21.1363C29.9306 20.7746 29.4401 20.5714 28.9286 20.5714H12.2143ZM10.2857 30.2143C10.2857 29.7028 10.4889 29.2123 10.8506 28.8506C11.2123 28.4889 11.7028 28.2857 12.2143 28.2857H26.3571C26.8686 28.2857 27.3592 28.4889 27.7208 28.8506C28.0825 29.2123 28.2857 29.7028 28.2857 30.2143C28.2857 30.7258 28.0825 31.2163 27.7208 31.578C27.3592 31.9397 26.8686 32.1429 26.3571 32.1429H12.2143C11.7028 32.1429 11.2123 31.9397 10.8506 31.578C10.4889 31.2163 10.2857 30.7258 10.2857 30.2143ZM48.8571 32.1429C48.8571 33.8478 48.1798 35.483 46.9743 36.6885C45.7687 37.8941 44.1335 38.5714 42.4286 38.5714C40.7236 38.5714 39.0885 37.8941 37.8829 36.6885C36.6773 35.483 36 33.8478 36 32.1429C36 30.4379 36.6773 28.8028 37.8829 27.5972C39.0885 26.3916 40.7236 25.7143 42.4286 25.7143C44.1335 25.7143 45.7687 26.3916 46.9743 27.5972C48.1798 28.8028 48.8571 30.4379 48.8571 32.1429ZM54 45.9643C54 49.9654 50.6931 54 42.4286 54C34.164 54 30.8571 49.9809 30.8571 45.9643V45.6994C30.8571 43.1794 32.8989 41.1429 35.4163 41.1429H49.4409C51.9609 41.1429 54 43.182 54 45.6994V45.9643Z" fill="black"/>
</svg>
