<svg width="53" height="54" viewBox="0 0 53 54" fill="none" xmlns="http://www.w3.org/2000/svg">
<path d="M4.81818 9.81818V49.0909H48.1818V54H4.81818C3.54032 54 2.3148 53.4828 1.41121 52.5622C0.507629 51.6415 0 50.3929 0 49.0909V9.81818H4.81818ZM36.1364 17.1818H49.3864L36.1364 3.68182V17.1818ZM14.4545 0H38.5455L53 14.7273V39.2727C53 40.5747 52.4924 41.8233 51.5888 42.744C50.6852 43.6646 49.4597 44.1818 48.1818 44.1818H14.4545C13.1767 44.1818 11.9512 43.6646 11.0476 42.744C10.144 41.8233 9.63636 40.5747 9.63636 39.2727V4.90909C9.63636 3.60712 10.144 2.35847 11.0476 1.43784C11.9512 0.517206 13.1767 0 14.4545 0ZM14.4545 4.90909V39.2727H48.1818V22.0909H31.3182V4.90909H14.4545Z" fill="black"/>
</svg>


