<svg width="45" height="53" viewBox="0 0 45 53" fill="none" xmlns="http://www.w3.org/2000/svg">
<path d="M18.9189 0.756967C19.3893 0.272281 20.0272 0 20.6923 0C21.3574 0 21.9953 0.272281 22.4656 0.756967L28.7364 7.22044C29.2066 7.70527 29.4708 8.36275 29.4708 9.0483C29.4708 9.73386 29.2066 10.3913 28.7364 10.8762L22.4656 17.3396C22.2343 17.5866 21.9575 17.7835 21.6515 17.919C21.3454 18.0545 21.0163 18.1259 20.6833 18.1288C20.3502 18.1318 20.0199 18.0664 19.7117 17.9364C19.4034 17.8064 19.1233 17.6144 18.8878 17.3717C18.6523 17.1289 18.4661 16.8403 18.34 16.5225C18.2138 16.2048 18.1504 15.8644 18.1533 15.5211C18.1562 15.1778 18.2253 14.8385 18.3568 14.5231C18.4883 14.2077 18.6794 13.9224 18.9189 13.6839L20.8202 11.7216C17.5328 12.0622 14.4053 13.352 11.7973 15.4427C9.18918 17.5335 7.20635 20.3402 6.07664 23.5405C4.94693 26.7408 4.71619 30.2047 5.41094 33.5341C6.10569 36.8635 7.69773 39.9232 10.0041 42.3618C12.3105 44.8003 15.2376 46.5186 18.449 47.3191C21.6604 48.1197 25.0257 47.97 28.1583 46.8874C31.2909 45.8047 34.0635 43.833 36.1576 41.1988C38.2516 38.5646 39.5821 35.3749 39.9961 31.9962C40.0297 31.6533 40.1295 31.3208 40.2896 31.0182C40.4497 30.7156 40.6669 30.449 40.9284 30.2342C41.1899 30.0194 41.4905 29.8607 41.8124 29.7673C42.1343 29.674 42.471 29.6479 42.8028 29.6907C43.1346 29.7334 43.4548 29.8441 43.7445 30.0163C44.0342 30.1884 44.2876 30.4185 44.4897 30.6931C44.6919 30.9676 44.8387 31.2811 44.9217 31.615C45.0046 31.9489 45.0219 32.2965 44.9726 32.6374C44.4386 37.0103 42.7106 41.1369 39.9899 44.537C37.2691 47.9371 33.6675 50.4708 29.6041 51.8432C25.5407 53.2156 21.1827 53.3702 17.0374 52.2892C12.8921 51.2081 9.12986 48.9357 6.18866 45.7366C3.24746 42.5375 1.24824 38.5431 0.423697 34.2184C-0.40085 29.8938 -0.0168134 25.4167 1.53111 21.3082C3.07903 17.1997 5.72717 13.6289 9.16732 11.0113C12.6075 8.3937 16.6981 6.837 20.9632 6.52238L18.9189 4.4127C18.4487 3.92787 18.1845 3.27039 18.1845 2.58484C18.1845 1.89928 18.4487 1.2418 18.9189 0.756967ZM33.1259 21.4401C33.5961 21.9249 33.8603 22.5824 33.8603 23.2679C33.8603 23.9535 33.5961 24.611 33.1259 25.0958L21.8386 36.73C21.3682 37.2147 20.7303 37.487 20.0652 37.487C19.4001 37.487 18.7622 37.2147 18.2918 36.73L13.2753 31.5593C13.0357 31.3208 12.8446 31.0355 12.7131 30.7201C12.5817 30.4046 12.5125 30.0654 12.5096 29.7221C12.5067 29.3788 12.5702 29.0384 12.6963 28.7206C12.8224 28.4029 13.0087 28.1142 13.2442 27.8715C13.4797 27.6287 13.7597 27.4368 14.068 27.3068C14.3763 27.1768 14.7065 27.1114 15.0396 27.1143C15.3726 27.1173 15.7018 27.1887 16.0078 27.3241C16.3138 27.4596 16.5906 27.6566 16.822 27.9035L20.0652 31.2464L29.5792 21.4401C30.0495 20.9554 30.6874 20.6831 31.3525 20.6831C32.0176 20.6831 32.6555 20.9554 33.1259 21.4401Z" fill="black"/>
</svg>
