<svg width="52" height="61" viewBox="0 0 52 61" fill="none" xmlns="http://www.w3.org/2000/svg">
<path d="M49.5638 39.1653C49.5638 51.6258 41.9323 57.0932 36.0353 58.9352C34.776 59.3276 33.951 57.8546 34.7031 56.7681C37.2683 53.0637 40.2358 47.4118 40.2358 42.0937C40.2358 36.3833 35.4435 29.6362 31.7007 25.4778C30.8466 24.526 29.3541 25.1556 29.3074 26.4383C29.153 30.6816 28.4854 36.3599 25.6112 40.8082C25.5097 40.9746 25.3694 41.1139 25.2024 41.2139C25.0355 41.3139 24.8469 41.3718 24.6528 41.3824C24.4587 41.3931 24.265 41.3562 24.0882 41.2751C23.9114 41.1939 23.7568 41.0709 23.6378 40.9165C22.74 39.7744 21.8421 38.3629 20.9443 37.2501C20.4604 36.6498 19.5859 36.6439 19.0292 37.174C16.8517 39.2444 13.8055 42.4715 13.8055 46.4864C13.8055 49.3855 15.1814 52.9875 16.5981 55.7813C17.2394 57.0493 16.0471 58.5369 14.8199 57.8253C9.47091 54.7124 2.92383 48.264 2.92383 39.1653C2.92383 29.9524 15.4875 17.1874 20.2855 5.12806C21.0434 3.22457 23.3754 2.3314 24.9991 3.57306C34.8226 11.0933 49.5638 25.6301 49.5638 39.1653Z" stroke="black" stroke-width="4"/>
</svg>
