<svg width="54" height="54" viewBox="0 0 54 54" fill="none" xmlns="http://www.w3.org/2000/svg">
<path d="M7.36364 23.3182C7.36364 21.6907 8.01014 20.1299 9.16094 18.9791C10.3117 17.8283 11.8725 17.1818 13.5 17.1818C15.1275 17.1818 16.6883 17.8283 17.8391 18.9791C18.9899 20.1299 19.6364 21.6907 19.6364 23.3182C19.6364 24.9456 18.9899 26.5065 17.8391 27.6572C16.6883 28.808 15.1275 29.4545 13.5 29.4545C11.8725 29.4545 10.3117 28.808 9.16094 27.6572C8.01014 26.5065 7.36364 24.9456 7.36364 23.3182ZM13.5 20.8636C12.849 20.8636 12.2247 21.1222 11.7644 21.5826C11.3041 22.0429 11.0455 22.6672 11.0455 23.3182C11.0455 23.9692 11.3041 24.5935 11.7644 25.0538C12.2247 25.5141 12.849 25.7727 13.5 25.7727C14.151 25.7727 14.7753 25.5141 15.2356 25.0538C15.6959 24.5935 15.9545 23.9692 15.9545 23.3182C15.9545 22.6672 15.6959 22.0429 15.2356 21.5826C14.7753 21.1222 14.151 20.8636 13.5 20.8636ZM13.5 34.3636C11.8725 34.3636 10.3117 35.0101 9.16094 36.1609C8.01014 37.3117 7.36364 38.8725 7.36364 40.5C7.36364 42.1275 8.01014 43.6883 9.16094 44.8391C10.3117 45.9899 11.8725 46.6364 13.5 46.6364C15.1275 46.6364 16.6883 45.9899 17.8391 44.8391C18.9899 43.6883 19.6364 42.1275 19.6364 40.5C19.6364 38.8725 18.9899 37.3117 17.8391 36.1609C16.6883 35.0101 15.1275 34.3636 13.5 34.3636ZM11.0455 40.5C11.0455 39.849 11.3041 39.2247 11.7644 38.7644C12.2247 38.3041 12.849 38.0455 13.5 38.0455C14.151 38.0455 14.7753 38.3041 15.2356 38.7644C15.6959 39.2247 15.9545 39.849 15.9545 40.5C15.9545 41.151 15.6959 41.7753 15.2356 42.2356C14.7753 42.6959 14.151 42.9545 13.5 42.9545C12.849 42.9545 12.2247 42.6959 11.7644 42.2356C11.3041 41.7753 11.0455 41.151 11.0455 40.5ZM24.5455 22.7045C24.5455 22.2163 24.7394 21.7481 25.0846 21.4028C25.4299 21.0576 25.8981 20.8636 26.3864 20.8636H44.7955C45.2837 20.8636 45.7519 21.0576 46.0972 21.4028C46.4424 21.7481 46.6364 22.2163 46.6364 22.7045C46.6364 23.1928 46.4424 23.661 46.0972 24.0063C45.7519 24.3515 45.2837 24.5455 44.7955 24.5455H26.3864C25.8981 24.5455 25.4299 24.3515 25.0846 24.0063C24.7394 23.661 24.5455 23.1928 24.5455 22.7045ZM26.3864 38.0455C25.8981 38.0455 25.4299 38.2394 25.0846 38.5846C24.7394 38.9299 24.5455 39.3981 24.5455 39.8864C24.5455 40.3746 24.7394 40.8428 25.0846 41.1881C25.4299 41.5333 25.8981 41.7273 26.3864 41.7273H44.7955C45.2837 41.7273 45.7519 41.5333 46.0972 41.1881C46.4424 40.8428 46.6364 40.3746 46.6364 39.8864C46.6364 39.3981 46.4424 38.9299 46.0972 38.5846C45.7519 38.2394 45.2837 38.0455 44.7955 38.0455H26.3864ZM7.36364 10.4318C7.36364 9.94358 7.55759 9.47534 7.90283 9.1301C8.24806 8.78486 8.71631 8.59091 9.20455 8.59091H44.7955C45.2837 8.59091 45.7519 8.78486 46.0972 9.1301C46.4424 9.47534 46.6364 9.94358 46.6364 10.4318C46.6364 10.9201 46.4424 11.3883 46.0972 11.7335C45.7519 12.0788 45.2837 12.2727 44.7955 12.2727H9.20455C8.71631 12.2727 8.24806 12.0788 7.90283 11.7335C7.55759 11.3883 7.36364 10.9201 7.36364 10.4318ZM9.20455 0C6.76335 0 4.42214 0.969762 2.69595 2.69595C0.969762 4.42214 0 6.76335 0 9.20455V44.7955C0 47.2367 0.969762 49.5779 2.69595 51.3041C4.42214 53.0302 6.76335 54 9.20455 54H44.7955C47.2367 54 49.5779 53.0302 51.3041 51.3041C53.0302 49.5779 54 47.2367 54 44.7955V9.20455C54 6.76335 53.0302 4.42214 51.3041 2.69595C49.5779 0.969762 47.2367 0 44.7955 0H9.20455ZM3.68182 9.20455C3.68182 7.73983 4.26368 6.3351 5.29939 5.29939C6.3351 4.26368 7.73983 3.68182 9.20455 3.68182H44.7955C46.2602 3.68182 47.6649 4.26368 48.7006 5.29939C49.7363 6.3351 50.3182 7.73983 50.3182 9.20455V44.7955C50.3182 46.2602 49.7363 47.6649 48.7006 48.7006C47.6649 49.7363 46.2602 50.3182 44.7955 50.3182H9.20455C7.73983 50.3182 6.3351 49.7363 5.29939 48.7006C4.26368 47.6649 3.68182 46.2602 3.68182 44.7955V9.20455Z" fill="black"/>
</svg>
