<svg width="49" height="49" viewBox="0 0 49 49" fill="none" xmlns="http://www.w3.org/2000/svg">
<path d="M16.2233 15.9184H5.20289C4.55338 15.9184 3.93047 15.6603 3.4712 15.2011C3.01192 14.7418 2.75391 14.1189 2.75391 13.4694V2.44898C2.75391 1.79947 3.01192 1.17656 3.4712 0.717289C3.93047 0.258017 4.55338 0 5.20289 0C5.8524 0 6.4753 0.258017 6.93458 0.717289C7.39385 1.17656 7.65187 1.79947 7.65187 2.44898V11.0204H16.2233C16.8728 11.0204 17.4957 11.2784 17.955 11.7377C18.4143 12.197 18.6723 12.8199 18.6723 13.4694C18.6723 14.1189 18.4143 14.7418 17.955 15.2011C17.4957 15.6603 16.8728 15.9184 16.2233 15.9184Z" fill="black"/>
<path d="M46.533 26.9389C45.8835 26.9389 45.2606 26.6808 44.8013 26.2216C44.342 25.7623 44.084 25.1394 44.084 24.4899C44.0859 20.1785 42.6647 15.9871 40.041 12.5661C37.4173 9.14498 33.7378 6.68553 29.5734 5.56936C25.4091 4.45319 20.9928 4.74272 17.0098 6.39301C13.0268 8.0433 9.69987 10.9621 7.54525 14.6964C7.21985 15.2586 6.68446 15.6684 6.05686 15.8358C5.42926 16.0032 4.76087 15.9145 4.19872 15.5891C3.63657 15.2637 3.22671 14.7283 3.05931 14.1007C2.8919 13.4731 2.98066 12.8047 3.30607 12.2425C6.00057 7.57535 10.16 3.92787 15.1391 1.86593C20.1182 -0.196014 25.6385 -0.557136 30.8438 0.838582C36.0491 2.2343 40.6482 5.30883 43.9278 9.58521C47.2073 13.8616 48.9839 19.1007 48.982 24.4899C48.982 25.1394 48.724 25.7623 48.2647 26.2216C47.8054 26.6808 47.1825 26.9389 46.533 26.9389ZM43.7779 48.9797C43.1284 48.9797 42.5055 48.7217 42.0462 48.2624C41.5869 47.8031 41.3289 47.1802 41.3289 46.5307V37.9593H32.7575C32.108 37.9593 31.4851 37.7012 31.0258 37.242C30.5665 36.7827 30.3085 36.1598 30.3085 35.5103C30.3085 34.8608 30.5665 34.2379 31.0258 33.7786C31.4851 33.3193 32.108 33.0613 32.7575 33.0613H43.7779C44.4274 33.0613 45.0503 33.3193 45.5096 33.7786C45.9689 34.2379 46.2269 34.8608 46.2269 35.5103V46.5307C46.2269 47.1802 45.9689 47.8031 45.5096 48.2624C45.0503 48.7217 44.4274 48.9797 43.7779 48.9797Z" fill="black"/>
<path d="M24.4898 48.9795C17.9967 48.9731 11.7714 46.3908 7.18006 41.7995C2.58873 37.2082 0.00648339 30.9829 0 24.4898C0 23.8402 0.258017 23.2173 0.717289 22.7581C1.17656 22.2988 1.79947 22.0408 2.44898 22.0408C3.09849 22.0408 3.7214 22.2988 4.18067 22.7581C4.63994 23.2173 4.89796 23.8402 4.89796 24.4898C4.8961 28.8011 6.31729 32.9925 8.94099 36.4136C11.5647 39.8346 15.2442 42.2941 19.4086 43.4103C23.5729 44.5264 27.9892 44.2369 31.9722 42.5866C35.9552 40.9363 39.2821 38.0176 41.4367 34.2832C41.5979 34.0049 41.8122 33.761 42.0676 33.5655C42.323 33.37 42.6144 33.2267 42.9251 33.1438C43.2359 33.0609 43.5599 33.04 43.8787 33.0824C44.1976 33.1247 44.5049 33.2294 44.7833 33.3906C45.0616 33.5517 45.3055 33.7661 45.501 34.0214C45.6965 34.2768 45.8398 34.5682 45.9227 34.879C46.0056 35.1897 46.0264 35.5138 45.9841 35.8326C45.9418 36.1514 45.837 36.4587 45.6759 36.7371C43.5224 40.4513 40.4331 43.5361 36.7158 45.6842C32.9985 47.8322 28.7831 48.9684 24.4898 48.9795Z" fill="black"/>
</svg>
