<svg width="50" height="43" viewBox="0 0 50 43" fill="none" xmlns="http://www.w3.org/2000/svg">
<path d="M22.7274 21.4984C22.7274 21.8624 22.5837 22.2114 22.328 22.4687C22.0723 22.7261 21.7254 22.8707 21.3638 22.8707H10.4546C10.093 22.8707 9.7461 22.7261 9.49037 22.4687C9.23464 22.2114 9.09097 21.8624 9.09097 21.4984C9.09097 21.1345 9.23464 20.7854 9.49037 20.5281C9.7461 20.2708 10.093 20.1262 10.4546 20.1262H21.3638C21.7254 20.1262 22.0723 20.2708 22.328 20.5281C22.5837 20.7854 22.7274 21.1345 22.7274 21.4984ZM21.3638 12.8076H10.4546C10.093 12.8076 9.7461 12.9521 9.49037 13.2095C9.23464 13.4668 9.09097 13.8159 9.09097 14.1798C9.09097 14.5437 9.23464 14.8928 9.49037 15.1501C9.7461 15.4075 10.093 15.552 10.4546 15.552H21.3638C21.7254 15.552 22.0723 15.4075 22.328 15.1501C22.5837 14.8928 22.7274 14.5437 22.7274 14.1798C22.7274 13.8159 22.5837 13.4668 22.328 13.2095C22.0723 12.9521 21.7254 12.8076 21.3638 12.8076ZM46.3639 27.1292V41.6246C46.3645 41.8657 46.3019 42.1028 46.1824 42.3118C46.063 42.5209 45.8909 42.6945 45.6835 42.8154C45.4761 42.9362 45.2407 42.9999 45.0011 43C44.7614 43.0001 44.526 42.9367 44.3185 42.8162L38.6366 39.5457L32.9548 42.8162C32.7472 42.9367 32.5118 43.0001 32.2721 43C32.0325 42.9999 31.7971 42.9362 31.5897 42.8154C31.3824 42.6945 31.2103 42.5209 31.0908 42.3118C30.9713 42.1028 30.9087 41.8657 30.9093 41.6246V35.6782H3.18184C2.33796 35.6782 1.52865 35.3409 0.931939 34.7404C0.335229 34.1399 0 33.3255 0 32.4763V3.20189C0 2.3527 0.335229 1.53828 0.931939 0.937813C1.52865 0.337341 2.33796 0 3.18184 0H43.1821C44.026 0 44.8353 0.337341 45.432 0.937813C46.0287 1.53828 46.3639 2.3527 46.3639 3.20189V10.3787C47.5107 11.4473 48.4256 12.7429 49.0513 14.1841C49.677 15.6254 50 17.1812 50 18.7539C50 20.3267 49.677 21.8825 49.0513 23.3237C48.4256 24.765 47.5107 26.0605 46.3639 27.1292ZM38.6366 10.0631C36.9285 10.0631 35.2587 10.5728 33.8385 11.5278C32.4182 12.4827 31.3113 13.84 30.6576 15.4281C30.0039 17.0161 29.8329 18.7636 30.1661 20.4494C30.4994 22.1353 31.3219 23.6839 32.5297 24.8993C33.7376 26.1147 35.2764 26.9425 36.9517 27.2778C38.627 27.6131 40.3635 27.441 41.9416 26.7832C43.5197 26.1254 44.8685 25.0115 45.8175 23.5823C46.7665 22.1531 47.273 20.4728 47.273 18.7539C47.273 16.449 46.3631 14.2384 44.7435 12.6086C43.1238 10.9787 40.9271 10.0631 38.6366 10.0631ZM30.9093 32.9337V27.1292C28.9195 25.2605 27.6623 22.7352 27.3663 20.0126C27.0703 17.29 27.7552 14.5509 29.2964 12.2935C30.8376 10.0361 33.1327 8.41029 35.7644 7.71178C38.3961 7.01328 41.1895 7.28847 43.6366 8.4873V3.20189C43.6366 3.08058 43.5888 2.96423 43.5035 2.87845C43.4183 2.79267 43.3026 2.74448 43.1821 2.74448H3.18184C3.06128 2.74448 2.94567 2.79267 2.86042 2.87845C2.77518 2.96423 2.72729 3.08058 2.72729 3.20189V32.4763C2.72729 32.5976 2.77518 32.714 2.86042 32.7998C2.94567 32.8856 3.06128 32.9337 3.18184 32.9337H30.9093ZM43.6366 29.0206C42.0806 29.7895 40.3701 30.1893 38.6366 30.1893C36.9031 30.1893 35.1926 29.7895 33.6366 29.0206V39.2598L37.9548 36.7737C38.1621 36.6533 38.3972 36.5899 38.6366 36.5899C38.876 36.5899 39.1111 36.6533 39.3184 36.7737L43.6366 39.2598V29.0206Z" fill="#003BFF"/>
</svg>
