<svg width="60" height="61" viewBox="0 0 60 61" fill="none" xmlns="http://www.w3.org/2000/svg">
<path d="M21.0806 11.954C18.2034 12.0666 15.6023 13.1102 14.2117 14.5252C14.058 14.6813 13.8757 14.805 13.675 14.8894C13.4743 14.9738 13.2592 15.0172 13.042 15.0171C12.8248 15.0171 12.6098 14.9735 12.4091 14.889C12.2085 14.8044 12.0262 14.6805 11.8727 14.5244C11.7192 14.3682 11.5974 14.1829 11.5143 13.9789C11.4313 13.775 11.3886 13.5564 11.3887 13.3356C11.3887 13.1149 11.4316 12.8963 11.5148 12.6924C11.598 12.4885 11.7199 12.3033 11.8735 12.1472C14.0182 9.96755 17.5105 8.73066 20.9516 8.59453C24.4159 8.4584 28.1976 9.42137 30.8466 12.1136C31.1567 12.429 31.3308 12.8566 31.3307 13.3024C31.3305 13.7482 31.1561 14.1757 30.8458 14.4908C30.5355 14.8059 30.1148 14.9828 29.6762 14.9827C29.2375 14.9825 28.8169 14.8053 28.5068 14.4899C26.7044 12.6564 23.9363 11.8397 21.0806 11.9523" fill="black"/>
<path fill-rule="evenodd" clip-rule="evenodd" d="M37.9265 36.4364C41.2049 32.4985 43.0005 27.505 42.993 22.3466C42.993 10.2801 33.3692 0.499268 21.4965 0.499268C9.62382 0.499268 0 10.2801 0 22.3466C0 34.413 9.62382 44.1939 21.4965 44.1939C26.7797 44.1939 31.6164 42.2579 35.3601 39.0446L34.7251 42.7553L47.1501 55.383L54.0025 48.4188L41.5775 35.7911L37.9265 36.4364ZM21.4965 39.1522C30.6292 39.1522 38.0323 31.6283 38.0323 22.3466C38.0323 13.0648 30.6292 5.54095 21.4965 5.54095C12.3638 5.54095 4.96073 13.0648 4.96073 22.3466C4.96073 31.6283 12.3638 39.1522 21.4965 39.1522Z" fill="black"/>
<path d="M49.4883 57.7592L56.3407 50.7949L58.583 53.0738C59.8446 54.356 59.8446 56.4349 58.583 57.7155L56.2977 60.038C55.036 61.3203 52.9906 61.3203 51.7305 60.038L49.4883 57.7592Z" fill="black"/>
</svg>
