<svg width="62" height="43" viewBox="0 0 62 43" fill="none" xmlns="http://www.w3.org/2000/svg">
<path d="M61.6366 14.7001L55.3596 1.9373C55.1575 1.52609 54.8777 1.15935 54.5361 0.85803C54.1945 0.556709 53.7978 0.326702 53.3687 0.181143C52.9396 0.0355845 52.4865 -0.0226756 52.0352 0.00968826C51.584 0.0420522 51.1434 0.164406 50.7387 0.369766L44.4495 3.56483L31.3765 0.0497596C31.1296 -0.0152396 30.8704 -0.0152396 30.6235 0.0497596L17.5505 3.56483L11.2638 0.369766C10.8589 0.164017 10.4182 0.0413531 9.96663 0.00878607C9.51511 -0.023781 9.0617 0.034388 8.63232 0.179966C8.20294 0.325545 7.80601 0.555679 7.46421 0.857213C7.12242 1.15875 6.84246 1.52577 6.64035 1.9373L0.363437 14.7001C-0.044932 15.5302 -0.112073 16.4912 0.176779 17.3717C0.46563 18.2521 1.08682 18.98 1.90375 19.3952L8.5842 22.7902L22.2674 32.7204C22.4157 32.829 22.5826 32.9087 22.7596 32.9554L38.5072 36.9555C38.6271 36.986 38.7502 37.0012 38.8738 37.0005C39.2652 37.0002 39.6405 36.8419 39.9171 36.5605L53.5265 22.7327L60.0962 19.3952C60.9132 18.98 61.5344 18.2521 61.8232 17.3717C62.1121 16.4912 62.0449 15.5302 61.6366 14.7001ZM48.5955 23.4902L39.7867 16.3201C39.5026 16.0891 39.1446 15.9728 38.7813 15.9936C38.418 16.0143 38.075 16.1707 37.8182 16.4326C33.2293 21.1302 28.099 20.5377 24.8289 18.4126C24.7646 18.3724 24.7103 18.3176 24.6702 18.2525C24.6301 18.1875 24.6052 18.114 24.5976 18.0376C24.5889 17.9676 24.5956 17.8965 24.6173 17.8295C24.639 17.7625 24.6752 17.7012 24.7231 17.6501L35.5348 6.9999H43.8663L50.8568 21.2052L48.5955 23.4902ZM2.97656 16.4226C2.93587 16.2973 2.9456 16.1607 3.00363 16.0426L9.283 3.27733C9.32427 3.19411 9.38761 3.12426 9.46587 3.07567C9.54413 3.02708 9.63419 3.00167 9.72591 3.00232C9.80192 3.0024 9.87687 3.02037 9.9449 3.05482L15.4098 5.82988L8.68755 19.5002L3.22262 16.7251C3.16365 16.6941 3.11145 16.6514 3.06916 16.5994C3.02687 16.5474 2.99538 16.4873 2.97656 16.4226ZM38.4211 33.8404L23.7561 30.1154L11.2318 21.0252L18.4117 6.43739L31 3.05232L34.6416 4.03234C34.3631 4.08709 34.1065 4.22354 33.9035 4.42485L22.6587 15.5126C22.2936 15.8833 22.0151 16.3327 21.8439 16.8274C21.6727 17.3222 21.6132 17.8498 21.6696 18.3711C21.7261 18.8924 21.8971 19.3942 22.1701 19.8393C22.4431 20.2844 22.811 20.6615 23.2467 20.9427C28.222 24.1727 34.2578 23.5652 38.9452 19.4702L46.5016 25.6253L38.4211 33.8404ZM59.0234 16.4226C59.0032 16.485 58.971 16.5427 58.9288 16.5925C58.8866 16.6422 58.8351 16.6831 58.7774 16.7126L53.3125 19.5002L46.5902 5.82988L52.0551 3.05482C52.113 3.02529 52.176 3.00766 52.2406 3.00294C52.3052 2.99822 52.3701 3.00651 52.4316 3.02732C52.493 3.0479 52.5498 3.08057 52.5988 3.12346C52.6477 3.16636 52.6879 3.21864 52.717 3.27733L58.9964 16.0426C59.0544 16.1607 59.0641 16.2973 59.0234 16.4226ZM31.465 41.8631C31.3703 42.2489 31.1287 42.5807 30.7932 42.7856C30.4578 42.9905 30.056 43.0516 29.6762 42.9556L19.4083 40.3481C19.2311 40.3019 19.0641 40.2222 18.9161 40.1131L12.4276 35.4105C12.1088 35.1784 11.8938 34.8272 11.8299 34.434C11.766 34.0409 11.8584 33.6381 12.0868 33.3142C12.3152 32.9903 12.6609 32.7718 13.0478 32.7069C13.4348 32.642 13.8312 32.7359 14.15 32.9679L20.3974 37.5005L30.3898 40.0381C30.5784 40.086 30.7558 40.1712 30.9119 40.289C31.068 40.4067 31.1996 40.5546 31.2993 40.7242C31.399 40.8937 31.4647 41.0816 31.4927 41.2771C31.5208 41.4725 31.5105 41.6717 31.4626 41.8631H31.465Z" fill="#003BFF"/>
</svg>
