<svg width="58" height="61" viewBox="0 0 58 61" fill="none" xmlns="http://www.w3.org/2000/svg">
<path d="M0 10.8929C0 10.3151 0.225471 9.76093 0.626814 9.35237C1.02816 8.94381 1.57249 8.71429 2.14008 8.71428C9.73878 8.71428 17.1434 5.9751 24.3969 0.435715C24.7673 0.152888 25.2179 0 25.6809 0C26.144 0 26.5945 0.152888 26.965 0.435715C34.2184 5.9751 41.6231 8.71428 49.2218 8.71428C49.7894 8.71429 50.3337 8.94381 50.735 9.35237C51.1364 9.76093 51.3618 10.3151 51.3618 10.8929V26.1429C51.3618 27.1247 51.3238 28.089 51.2477 29.036C49.9409 28.1992 48.5367 27.5317 47.0674 27.0491C47.0769 26.749 47.0817 26.4469 47.0817 26.1429V13.0075C39.7284 12.566 32.5862 9.84133 25.6809 4.87419C18.7756 9.84133 11.6335 12.566 4.28015 13.0075V26.1429C4.28015 38.1947 10.9344 47.1181 24.6109 53.1136C25.3584 54.7151 26.3238 56.2014 27.4786 57.5288L26.4656 57.9442C25.9614 58.1465 25.4005 58.1465 24.8962 57.9442C8.44046 51.3446 0 40.6667 0 26.1429V10.8929ZM57.0687 45.0238C57.0687 49.261 55.4153 53.3246 52.4721 56.3207C49.5289 59.3168 45.5371 61 41.3748 61C37.2125 61 33.2207 59.3168 30.2776 56.3207C27.3344 53.3246 25.6809 49.261 25.6809 45.0238C25.6809 40.7867 27.3344 36.7231 30.2776 33.7269C33.2207 30.7308 37.2125 29.0476 41.3748 29.0476C45.5371 29.0476 49.5289 30.7308 52.4721 33.7269C55.4153 36.7231 57.0687 40.7867 57.0687 45.0238ZM50.9452 38.186C50.8127 38.0507 50.6553 37.9434 50.4819 37.8702C50.3086 37.797 50.1228 37.7593 49.9351 37.7593C49.7475 37.7593 49.5616 37.797 49.3883 37.8702C49.215 37.9434 49.0575 38.0507 48.925 38.186L38.5214 48.7797L33.8246 43.9955C33.5567 43.7228 33.1934 43.5696 32.8145 43.5696C32.4356 43.5696 32.0723 43.7228 31.8044 43.9955C31.5365 44.2682 31.386 44.6381 31.386 45.0238C31.386 45.4095 31.5365 45.7794 31.8044 46.0521L37.5113 51.8616C37.6438 51.9969 37.8012 52.1042 37.9746 52.1774C38.1479 52.2506 38.3337 52.2883 38.5214 52.2883C38.709 52.2883 38.8949 52.2506 39.0682 52.1774C39.2415 52.1042 39.399 51.9969 39.5315 51.8616L50.9452 40.2426C51.0781 40.1077 51.1835 39.9474 51.2555 39.7709C51.3274 39.5945 51.3644 39.4053 51.3644 39.2143C51.3644 39.0232 51.3274 38.8341 51.2555 38.6576C51.1835 38.4812 51.0781 38.3209 50.9452 38.186Z" fill="black"/>
</svg>
