<svg width="61" height="62" viewBox="0 0 61 62" fill="none" xmlns="http://www.w3.org/2000/svg">
<path d="M47.1263 28.042C46.0435 25.8151 43.1156 22.5417 37.0996 22.6809C37.0996 22.6809 32.3293 22.4722 26.9348 22.4722C21.543 22.4722 19.0184 22.6002 14.6983 22.6809C11.9334 22.6113 6.67695 23.2376 4.25728 29.0162C2.66626 33.8873 2.59997 44.1223 3.56673 49.2717C3.7739 51.9161 5.15775 55.607 9.44465 57.5555C12.0687 58.9472 16.2893 58.3905 19.4714 58.6689M13.936 20.2454C13.7978 13.6345 13.5216 8.41546 21.1259 4.09824C23.6837 3.05443 27.4872 2.14979 32.1884 4.37659C37.0968 7.36886 37.71 10.5365 38.1354 11.3354C39.3093 14.4696 38.6879 18.9232 38.826 20.7325" stroke="black" stroke-width="5" stroke-linecap="round" stroke-linejoin="round"/>
<path d="M39.4612 46.9503L44.958 41.5447M44.958 41.5447L48.8554 37.7647C49.7503 36.9965 51.5458 35.1984 53.6809 37.2581L58.175 41.5447M44.958 41.5447L49.4051 45.8453M40.2208 52.3642C40.2208 53.1829 40.0602 53.9935 39.748 54.7493C39.4359 55.5051 38.9785 56.1913 38.4021 56.7682C37.8257 57.3452 37.1418 57.8015 36.3897 58.111C35.6375 58.4205 34.8321 58.577 34.0197 58.5714C30.6057 58.5714 27.791 55.8269 27.791 52.3642C27.7976 50.7044 28.4569 49.1148 29.6245 47.944C30.792 46.7732 32.3726 46.1166 34.0197 46.118C37.4338 46.118 40.2208 48.9016 40.2208 52.3642Z" stroke="black" stroke-width="5" stroke-linecap="round" stroke-linejoin="round"/>
</svg>
