<svg width="78" height="78" viewBox="0 0 78 78" fill="none" xmlns="http://www.w3.org/2000/svg">
<path d="M38.4865 37.4835C44.2917 37.4835 48.8068 32.7168 48.8068 26.8668C48.8068 21.0168 44.0767 16.4668 38.2715 16.4668C32.4663 16.4668 27.9512 21.2335 27.9512 26.8668C27.9512 32.7168 32.6813 37.4835 38.4865 37.4835ZM38.2715 20.8001C38.4865 20.8001 38.4865 20.8001 38.2715 20.8001C41.7116 20.8001 44.5067 23.6168 44.5067 27.0835C44.5067 30.5501 41.7116 33.1501 38.2715 33.1501C34.8314 33.1501 32.2513 30.3335 32.2513 27.0835C32.2513 23.6168 35.0464 20.8001 38.2715 20.8001Z" fill="black"/>
<path d="M70.3071 36.1832C66.222 32.4999 60.8469 30.5499 55.2567 30.7665H53.5366C53.1066 32.4999 52.4616 34.0165 51.6016 35.3165C52.8916 35.0999 53.9666 35.0999 55.2567 35.0999C59.3418 34.8832 63.4269 36.1832 66.652 38.5665V54.1665H70.9522V36.8332L70.3071 36.1832Z" fill="black"/>
<path d="M50.3109 16.9C51.3859 14.3 54.396 13 57.1911 14.0833C59.7712 15.1667 61.0612 18.2 59.9862 21.0167C59.1262 22.9667 57.1911 24.2667 55.256 24.2667C54.826 24.2667 54.181 24.2667 53.751 24.05C53.966 25.1333 53.966 26.2167 53.966 27.0833V28.3833C54.396 28.3833 54.826 28.6 55.256 28.6C60.6312 28.6 64.9313 24.2667 64.9313 19.0667C64.9313 13.65 60.6312 9.31665 55.471 9.31665C52.0309 9.31665 49.0208 11.05 47.3008 14.0833C48.3758 14.7333 49.4508 15.6 50.3109 16.9Z" fill="black"/>
<path d="M25.7998 35.5334C24.9398 34.2334 24.2948 32.7167 23.8648 30.9834H22.1447C16.5545 30.7667 11.1794 32.7167 7.09424 36.1834L6.44922 36.8334V54.1667H10.7494V38.5667C14.1895 36.1834 18.0596 34.8834 22.1447 35.1C23.4348 35.1 24.7248 35.3167 25.7998 35.5334Z" fill="black"/>
<path d="M22.1452 28.3836C22.5752 28.3836 23.0052 28.3836 23.4352 28.1669V26.8669C23.4352 25.7836 23.4352 24.7003 23.6502 23.8336C23.2202 24.0503 22.5752 24.0503 22.1452 24.0503C19.3501 24.0503 16.985 21.6669 16.985 18.8503C16.985 16.0336 19.3501 13.6503 22.1452 13.6503C24.2953 13.6503 26.2303 14.9503 27.0903 16.9003C27.9504 15.8169 29.2404 14.7336 30.3155 13.8669C27.5204 9.31693 21.7152 7.80026 17.2 10.6169C12.6849 13.4336 11.1799 19.2836 13.9749 23.8336C15.695 26.6503 18.7051 28.3836 22.1452 28.3836Z" fill="black"/>
<path d="M56.118 49.1836L55.688 48.5336C51.3879 43.7669 45.3677 40.9503 38.9175 41.1669C32.4673 40.9503 26.2321 43.7669 21.932 48.5336L21.502 49.1836V65.6503C21.502 67.6003 23.007 69.3336 25.1571 69.3336H52.6779C54.613 69.3336 56.333 67.6003 56.333 65.6503V49.1836H56.118ZM51.8179 65.0003H25.8021V50.7003C29.2422 47.2336 33.9723 45.5003 38.9175 45.5003C43.6476 45.2836 48.3778 47.2336 51.8179 50.7003V65.0003Z" fill="black"/>
</svg>
