<svg width="47" height="63" viewBox="0 0 47 63" fill="none" xmlns="http://www.w3.org/2000/svg">
<path d="M39.9412 14.8261H45V61H2V9.69565C23.5 7.13043 39.3088 2 39.3088 2H39.9412V14.8261ZM39.9412 14.8261H8.32353M34.8824 37.913C34.8824 34.8515 33.6831 31.9154 31.5485 29.7506C29.4139 27.5858 26.5188 26.3696 23.5 26.3696M34.8824 37.913C34.8824 39.429 34.5879 40.93 34.0159 42.3305C33.4439 43.7311 32.6055 45.0036 31.5485 46.0755C30.4916 47.1474 29.2368 47.9977 27.8558 48.5778C26.4749 49.1579 24.9948 49.4565 23.5 49.4565M34.8824 37.913C33.6176 39.1957 29.8235 40.4783 23.5 40.4783C17.1765 40.4783 13.3824 39.1957 12.1176 37.913M23.5 26.3696C20.4812 26.3696 17.5861 27.5858 15.4515 29.7506C13.3169 31.9154 12.1176 34.8515 12.1176 37.913M23.5 26.3696C25.9434 26.3696 27.9265 31.5385 27.9265 37.913C27.9265 44.2876 25.9434 49.4565 23.5 49.4565M23.5 26.3696C21.0566 26.3696 19.0735 31.5385 19.0735 37.913C19.0735 44.2876 21.0566 49.4565 23.5 49.4565M23.5 49.4565C20.4812 49.4565 17.5861 48.2403 15.4515 46.0755C14.3945 45.0036 13.5561 43.7311 12.9841 42.3305C12.4121 40.93 12.1176 39.429 12.1176 37.913" stroke="#003BFF" stroke-width="3"/>
</svg>
