<svg width="111" height="40" viewBox="0 0 111 40" fill="none" xmlns="http://www.w3.org/2000/svg">
<path d="M41.252 37.3825L41.6755 36.9915C41.8711 37.3174 42.1969 37.4803 42.5227 37.4803C42.816 37.4803 43.0441 37.3174 43.0441 37.0893C43.0441 36.9155 42.9463 36.7852 42.7508 36.6983C42.7074 36.6548 42.577 36.6005 42.3598 36.5354C42.1643 36.4485 42.034 36.3833 41.9688 36.3398C41.6212 36.1443 41.4475 35.862 41.4475 35.4927C41.4475 35.2103 41.5452 34.9822 41.7407 34.8084C41.9579 34.6346 42.2295 34.5369 42.5553 34.5151C43.0115 34.5369 43.3699 34.7106 43.6306 35.0365L43.2396 35.4601C43.0441 35.2211 42.8051 35.1016 42.5227 35.1016C42.2621 35.1016 42.0991 35.2646 42.0991 35.4601C42.0991 35.6339 42.186 35.7642 42.3598 35.8511L42.6857 35.9814C42.9029 36.0683 43.055 36.1443 43.1418 36.2095C43.5111 36.405 43.6958 36.6874 43.6958 37.0567C43.6958 37.3391 43.5872 37.5781 43.3699 37.7736C43.1527 37.9908 42.8594 38.0994 42.4902 38.0994C42.0014 38.0994 41.5126 37.8387 41.252 37.3825Z" fill="black"/>
<path d="M45.8457 36.6332V34.6455H46.53V36.6332C46.53 37.1219 46.7906 37.4478 47.2794 37.4478C47.7356 37.4478 48.0289 37.1219 48.0289 36.6332V34.6455H48.6805V36.6332C48.6805 37.5455 48.1592 38.0994 47.2794 38.0994C46.3996 38.0994 45.8457 37.5129 45.8457 36.6332Z" fill="black"/>
<path d="M51.352 37.5782C51.0262 37.2524 50.8633 36.8396 50.8633 36.34C50.8633 35.8186 51.0262 35.395 51.352 35.0692C51.6779 34.7216 52.0906 34.5479 52.5903 34.5479C53.2419 34.5479 53.8284 34.9063 54.0891 35.4602L53.5352 35.7861C53.3397 35.4276 52.9813 35.1995 52.5903 35.1995C52.2861 35.1995 52.0363 35.3082 51.8408 35.5254C51.6236 35.7426 51.515 36.0141 51.515 36.34C51.5367 36.6441 51.6453 36.9048 51.8408 37.122C52.0363 37.3392 52.2861 37.4479 52.5903 37.4479C52.9487 37.4479 53.3397 37.2198 53.5352 36.8613L54.0565 37.2198C53.7959 37.7411 53.2094 38.067 52.5577 38.067C52.058 38.067 51.6562 37.904 51.352 37.5782Z" fill="black"/>
<path d="M56.5005 37.5782C56.1746 37.2524 56.0117 36.8396 56.0117 36.34C56.0117 35.8186 56.1746 35.395 56.5005 35.0692C56.8263 34.7216 57.2391 34.5479 57.7387 34.5479C58.3904 34.5479 58.9769 34.9063 59.2376 35.4602L58.6836 35.7861C58.4881 35.4276 58.1297 35.1995 57.7387 35.1995C57.4346 35.1995 57.1848 35.3082 56.9892 35.5254C56.772 35.7426 56.6634 36.0141 56.6634 36.34C56.6851 36.6441 56.7937 36.9048 56.9892 37.122C57.1848 37.3392 57.4346 37.4479 57.7387 37.4479C58.0971 37.4479 58.4881 37.2198 58.6836 36.8613L59.205 37.2198C58.9443 37.7411 58.3578 38.067 57.7061 38.067C57.2065 38.067 56.8046 37.904 56.5005 37.5782Z" fill="black"/>
<path fill-rule="evenodd" clip-rule="evenodd" d="M64.386 36.6007H61.8444C61.9422 37.122 62.3006 37.4804 62.9197 37.4804C63.2781 37.4804 63.7343 37.3175 64.0276 37.122L64.2882 37.6108C63.9624 37.8715 63.4411 38.067 62.8871 38.067C61.6815 38.067 61.1602 37.1872 61.1602 36.3074C61.1602 35.8078 61.3122 35.395 61.6163 35.0692C61.9205 34.7216 62.3223 34.5479 62.822 34.5479C63.2781 34.5479 63.6583 34.6999 63.9624 35.004C64.2448 35.3082 64.386 35.7209 64.386 36.2422C64.386 36.3509 64.386 36.4703 64.386 36.6007ZM61.8444 36.0141H63.7343C63.6691 35.4928 63.3107 35.167 62.822 35.167C62.3332 35.167 61.9422 35.4928 61.8444 36.0141Z" fill="black"/>
<path d="M66.3086 37.3825L66.7322 36.9915C66.9277 37.3174 67.2535 37.4803 67.5794 37.4803C67.8726 37.4803 68.1007 37.3174 68.1007 37.0893C68.1007 36.9155 68.0138 36.7852 67.8401 36.6983C67.7749 36.6548 67.6445 36.6005 67.449 36.5354C67.2318 36.4485 67.0906 36.3833 67.0255 36.3398C66.6779 36.1443 66.5041 35.862 66.5041 35.4927C66.5041 35.2103 66.6019 34.9822 66.7974 34.8084C67.0146 34.6346 67.2861 34.5369 67.612 34.5151C68.0681 34.5369 68.4266 34.7106 68.6873 35.0365L68.2962 35.4601C68.1007 35.2211 67.8618 35.1016 67.5794 35.1016C67.3187 35.1016 67.1558 35.2646 67.1558 35.4601C67.1558 35.6339 67.2427 35.7642 67.4165 35.8511L67.7423 35.9814C67.9595 36.0683 68.1116 36.1443 68.1985 36.2095C68.5678 36.405 68.7524 36.6874 68.7524 37.0567C68.7524 37.3391 68.6438 37.5781 68.4266 37.7736C68.2093 37.9908 67.9161 38.0994 67.5468 38.0994C67.058 38.0994 66.5693 37.8387 66.3086 37.3825Z" fill="black"/>
<path d="M70.6758 37.3825L71.0994 36.9915C71.2949 37.3174 71.6207 37.4803 71.914 37.4803C72.2072 37.4803 72.4353 37.3174 72.4353 37.0893C72.4353 36.9155 72.3484 36.7852 72.1746 36.6983C72.1095 36.6548 71.9792 36.6005 71.7836 36.5354C71.5881 36.4485 71.4469 36.3833 71.36 36.3398C71.0342 36.1443 70.8713 35.862 70.8713 35.4927C70.8713 35.2103 70.969 34.9822 71.1645 34.8084C71.3601 34.6346 71.6207 34.5369 71.9466 34.5151C72.4245 34.5369 72.7829 34.7106 73.0218 35.0365L72.6308 35.4601C72.4353 35.2211 72.1964 35.1016 71.914 35.1016C71.6533 35.1016 71.4904 35.2646 71.4904 35.4601C71.4904 35.6339 71.5881 35.7642 71.7836 35.8511L72.1095 35.9814C72.305 36.0683 72.4571 36.1443 72.5657 36.2095C72.9132 36.405 73.0979 36.6874 73.1196 37.0567C73.0979 37.3391 72.9784 37.5781 72.7612 37.7736C72.5439 37.9908 72.2615 38.0994 71.914 38.0994C71.3926 38.0994 70.9365 37.8387 70.6758 37.3825Z" fill="black"/>
<path fill-rule="evenodd" clip-rule="evenodd" d="M81.2646 35.0692C81.5687 35.4168 81.7208 35.8404 81.7208 36.34C81.7208 36.8179 81.5687 37.2306 81.2646 37.5782C80.9605 37.9258 80.5695 38.0995 80.0916 38.0995C79.6571 38.0995 79.2878 37.9149 78.9837 37.5456V39.4029H78.332V34.6456H78.9837V35.1344C79.2878 34.7434 79.6571 34.5479 80.0916 34.5479C80.5695 34.5479 80.9605 34.7216 81.2646 35.0692ZM80.7759 35.5254C80.5803 35.3082 80.3305 35.1995 80.0264 35.1995C79.7006 35.1995 79.4508 35.3082 79.277 35.5254C79.0815 35.7426 78.9837 36.0033 78.9837 36.3074C78.9837 36.6333 79.0815 36.9048 79.277 37.122C79.4508 37.3392 79.7006 37.4479 80.0264 37.4479C80.3305 37.4479 80.5803 37.3392 80.7759 37.122C80.9496 36.9048 81.0365 36.6333 81.0365 36.3074C81.0365 36.0033 80.9496 35.7426 80.7759 35.5254Z" fill="black"/>
<path fill-rule="evenodd" clip-rule="evenodd" d="M86.4467 34.6456H87.0984V38.0018H86.4467V37.5456C86.1643 37.9149 85.795 38.0995 85.3388 38.0995C84.8826 38.0995 84.5025 37.9258 84.1984 37.5782C83.8943 37.2306 83.7422 36.807 83.7422 36.3074C83.7422 35.8078 83.8943 35.395 84.1984 35.0692C84.5025 34.7216 84.8826 34.5479 85.3388 34.5479C85.795 34.5479 86.1643 34.7325 86.4467 35.1018V34.6456ZM86.186 37.122C86.3815 36.9048 86.4793 36.6441 86.4793 36.34C86.4793 36.0141 86.3815 35.7426 86.186 35.5254C85.9905 35.3082 85.7407 35.1995 85.4366 35.1995C85.1325 35.1995 84.8826 35.3082 84.6871 35.5254C84.4916 35.7426 84.3939 36.0141 84.3939 36.34C84.3939 36.6658 84.4916 36.9374 84.6871 37.1546C84.8826 37.3718 85.1325 37.4804 85.4366 37.4804C85.7407 37.4804 85.9905 37.361 86.186 37.122Z" fill="black"/>
<path d="M89.5098 38.0018V34.6456H90.1289V35.1344C90.3244 34.7434 90.6285 34.5479 91.0412 34.5479C91.1716 34.5479 91.3019 34.5696 91.4322 34.613L91.3671 35.2647C91.2585 35.2213 91.139 35.2104 91.0086 35.2321C90.5199 35.2321 90.1615 35.5906 90.1615 36.2748V38.0018H89.5098Z" fill="black"/>
<path d="M95.7336 37.8062C95.4729 38.0017 95.1688 38.0995 94.8212 38.0995C94.137 38.0995 93.7785 37.6433 93.7785 36.7961V35.2321H93.2246V34.6456H93.7785V33.4399H94.4302V34.6456H95.5381V35.2321H94.4302V36.8287C94.4302 37.2414 94.5932 37.4478 94.919 37.4478C95.0928 37.4478 95.2883 37.3826 95.5055 37.2523L95.7336 37.8062Z" fill="black"/>
<path d="M97.7207 38.0018V34.6456H98.3724V35.1018C98.5679 34.7759 98.9263 34.5479 99.3825 34.5479C99.7518 34.5479 100.056 34.6673 100.295 34.9063C100.534 35.1452 100.653 35.4928 100.653 35.949V38.0018H100.002V36.1445C100.002 35.5254 99.6758 35.1995 99.2196 35.1995C98.7308 35.1995 98.3724 35.5905 98.3724 36.1771V38.0018H97.7207Z" fill="black"/>
<path fill-rule="evenodd" clip-rule="evenodd" d="M106.062 36.6007H103.52C103.618 37.122 103.976 37.4804 104.595 37.4804C104.954 37.4804 105.41 37.3175 105.703 37.122L105.964 37.6108C105.638 37.8715 105.117 38.067 104.563 38.067C103.357 38.067 102.836 37.1872 102.836 36.3074C102.836 35.8078 102.988 35.395 103.292 35.0692C103.596 34.7216 103.998 34.5479 104.498 34.5479C104.954 34.5479 105.334 34.6999 105.638 35.004C105.921 35.3082 106.062 35.7209 106.062 36.2422C106.062 36.3509 106.062 36.4703 106.062 36.6007ZM103.52 36.0141H105.41C105.345 35.4928 104.987 35.167 104.498 35.167C104.009 35.167 103.618 35.4928 103.52 36.0141Z" fill="black"/>
<path d="M108.277 38.0018V34.6456H108.896V35.1344C109.092 34.7434 109.396 34.5479 109.809 34.5479C109.961 34.5479 110.091 34.5696 110.2 34.613L110.135 35.2647C110.026 35.2213 109.917 35.2104 109.809 35.2321C109.287 35.2321 108.929 35.5906 108.929 36.2748V38.0018H108.277Z" fill="black"/>
<path d="M42.6856 19.0704V22.4592H46.335V23.5344H42.6856V26.9884H46.7912V28.0962H41.3496V17.9951H46.7912V19.0704H42.6856Z" fill="black"/>
<path d="M49.5933 26.9558H54.5136V28.0962H48.0293V27.0535L52.9169 19.1356H48.0945V17.9951H54.481V19.0378L49.5933 26.9558Z" fill="black"/>
<path d="M67.2207 20.4061C67.6986 20.6451 68.0788 21.0252 68.3612 21.5466C68.6436 22.0679 68.7847 22.687 68.7847 23.4039V28.096H67.4814V23.5994C67.4814 22.8174 67.2859 22.2091 66.8949 21.7747C66.5039 21.362 65.9716 21.1556 65.2982 21.1556C64.6031 21.1556 64.06 21.3728 63.669 21.8073C63.2563 22.2417 63.0499 22.8826 63.0499 23.7297V28.096H61.7465V23.5994C61.7465 22.8174 61.551 22.2091 61.16 21.7747C60.769 21.362 60.2477 21.1556 59.596 21.1556C58.9009 21.1556 58.3469 21.3728 57.9342 21.8073C57.5432 22.2417 57.3477 22.8826 57.3477 23.7297V28.096H56.0117V20.1455H57.3477V21.2859C57.6083 20.8732 57.9559 20.5582 58.3904 20.341C58.8248 20.1238 59.3136 20.0151 59.8567 20.0151C60.5083 20.0151 61.0949 20.1672 61.6162 20.4713C62.1158 20.7537 62.496 21.1882 62.7567 21.7747C62.9739 21.2099 63.3432 20.7754 63.8645 20.4713C64.3641 20.1672 64.9289 20.0151 65.5589 20.0151C66.1671 20.0151 66.7211 20.1455 67.2207 20.4061Z" fill="black"/>
<path d="M70.6747 18.614C70.501 18.4402 70.4141 18.223 70.4141 17.9623C70.4141 17.7233 70.501 17.517 70.6747 17.3432C70.8485 17.1694 71.0658 17.0825 71.3264 17.0825C71.5654 17.0825 71.7717 17.1694 71.9455 17.3432C72.0976 17.517 72.1736 17.7233 72.1736 17.9623C72.1736 18.223 72.0976 18.4402 71.9455 18.614C71.7717 18.7878 71.5654 18.8747 71.3264 18.8747C71.0658 18.8747 70.8485 18.7878 70.6747 18.614ZM71.9455 20.1454V28.096H70.6422V20.1454H71.9455Z" fill="black"/>
<path fill-rule="evenodd" clip-rule="evenodd" d="M78.984 20.4713C79.5054 20.7754 79.8855 21.1556 80.1245 21.6118V20.1455H81.4604V28.259C81.4604 28.9758 81.3084 29.6166 81.0042 30.1814C80.7001 30.7462 80.2548 31.1915 79.6683 31.5174C79.1035 31.8432 78.441 32.0062 77.6807 32.0062C76.638 32.0062 75.769 31.7563 75.0739 31.2567C74.3788 30.7571 73.966 30.0837 73.8357 29.2365H75.1391C75.2911 29.7144 75.5844 30.1054 76.0189 30.4095C76.475 30.7136 77.029 30.8657 77.6807 30.8657C78.3975 30.8657 78.984 30.6376 79.4402 30.1814C79.8964 29.7252 80.1245 29.0844 80.1245 28.259V26.5972C79.8638 27.0533 79.4836 27.4335 78.984 27.7376C78.4627 28.0635 77.8653 28.2264 77.1919 28.2264C76.475 28.2264 75.8342 28.0526 75.2694 27.705C74.6829 27.3575 74.2267 26.8687 73.9009 26.2387C73.575 25.6088 73.4121 24.8919 73.4121 24.0882C73.4121 23.2844 73.575 22.5784 73.9009 21.9702C74.2267 21.3402 74.6829 20.8623 75.2694 20.5365C75.8342 20.1889 76.475 20.0151 77.1919 20.0151C77.8653 20.0151 78.4627 20.1672 78.984 20.4713ZM79.766 22.5567C79.5271 22.1005 79.2012 21.753 78.7885 21.514C78.3758 21.2751 77.9305 21.1556 77.4526 21.1556C76.9529 21.1556 76.4967 21.2751 76.084 21.514C75.693 21.753 75.3672 22.0897 75.1065 22.5241C74.8675 22.9803 74.7481 23.5017 74.7481 24.0882C74.7481 24.6964 74.8675 25.2286 75.1065 25.6848C75.3672 26.1193 75.693 26.456 76.084 26.6949C76.4967 26.9339 76.9529 27.0533 77.4526 27.0533C77.9305 27.0533 78.3758 26.9339 78.7885 26.6949C79.2012 26.456 79.5271 26.1193 79.766 25.6848C80.005 25.2286 80.1245 24.7073 80.1245 24.1208C80.1245 23.5125 80.005 22.9912 79.766 22.5567Z" fill="black"/>
<path d="M85.6963 20.3736C86.1307 20.1346 86.6521 20.0151 87.2603 20.0151V21.3837H86.9345C85.4573 21.3837 84.7188 22.1766 84.7188 23.7623V28.096H83.3828V20.1455H84.7188V21.4488C84.9577 20.9927 85.2836 20.6342 85.6963 20.3736Z" fill="black"/>
<path fill-rule="evenodd" clip-rule="evenodd" d="M88.4985 21.9702C88.8244 21.3402 89.2806 20.8623 89.8671 20.5365C90.4319 20.1889 91.0727 20.0151 91.7895 20.0151C92.4847 20.0151 93.0821 20.1672 93.5817 20.4713C94.103 20.7754 94.4832 21.1556 94.7221 21.6118V20.1455H96.0581V28.096H94.7221V26.5972C94.4615 27.0751 94.0704 27.4661 93.5491 27.7702C93.0495 28.0743 92.4521 28.2264 91.757 28.2264C91.0618 28.2264 90.421 28.0526 89.8345 27.705C89.2697 27.3575 88.8244 26.8687 88.4985 26.2387C88.1727 25.6088 88.0098 24.8919 88.0098 24.0882C88.0098 23.2844 88.1727 22.5784 88.4985 21.9702ZM94.3637 22.5567C94.1247 22.1005 93.7989 21.753 93.3862 21.514C92.9734 21.2751 92.5281 21.1556 92.0502 21.1556C91.5506 21.1556 91.0944 21.2751 90.6817 21.514C90.2907 21.753 89.9648 22.0897 89.7042 22.5241C89.4652 22.9803 89.3457 23.5017 89.3457 24.0882C89.3457 24.6964 89.4652 25.2286 89.7042 25.6848C89.9648 26.1193 90.2907 26.456 90.6817 26.6949C91.0944 26.9339 91.5506 27.0533 92.0502 27.0533C92.5281 27.0533 92.9734 26.9339 93.3862 26.6949C93.7989 26.456 94.1247 26.1193 94.3637 25.6848C94.6027 25.2286 94.7221 24.7073 94.7221 24.1208C94.7221 23.5125 94.6027 22.9912 94.3637 22.5567Z" fill="black"/>
<path d="M99.6097 21.2532V25.9128C99.6097 26.3038 99.6858 26.5753 99.8378 26.7274C100.012 26.9012 100.294 26.9881 100.685 26.9881H101.663V28.0959H100.49C99.7509 28.0959 99.197 27.9221 98.8277 27.5746C98.4584 27.2487 98.2738 26.6948 98.2738 25.9128V21.2532H97.2637V20.1454H98.2738V18.1577H99.6097V20.1454H101.663V21.2532H99.6097Z" fill="black"/>
<path fill-rule="evenodd" clip-rule="evenodd" d="M110.168 24.6095H103.814C103.88 25.3915 104.151 25.9998 104.629 26.4342C105.107 26.8904 105.693 27.1185 106.389 27.1185C106.975 27.1185 107.453 26.9773 107.822 26.6949C108.213 26.4342 108.485 26.0867 108.637 25.6522H110.038C109.843 26.4125 109.419 27.0316 108.767 27.5095C108.137 27.9874 107.344 28.2264 106.389 28.2264C105.65 28.2264 104.977 28.0526 104.368 27.705C103.782 27.3792 103.326 26.9013 103 26.2713C102.652 25.6414 102.479 24.9245 102.479 24.1208C102.479 23.2953 102.641 22.5676 102.967 21.9376C103.293 21.3294 103.76 20.8623 104.368 20.5365C104.955 20.1889 105.628 20.0151 106.389 20.0151C107.149 20.0151 107.822 20.1781 108.409 20.5039C108.974 20.8515 109.419 21.3076 109.745 21.8724C110.049 22.4372 110.201 23.0889 110.201 23.8275C110.201 24.0664 110.19 24.3271 110.168 24.6095ZM108.507 22.2635C108.289 21.8942 107.996 21.6118 107.627 21.4163C107.236 21.2425 106.812 21.1556 106.356 21.1556C105.683 21.1556 105.107 21.362 104.629 21.7747C104.173 22.2091 103.912 22.7957 103.847 23.5342H108.832C108.832 23.0346 108.724 22.611 108.507 22.2635Z" fill="black"/>
<path d="M3.87815 2.12628H4.30175V0.334143H4.88826V0.00830078H3.32422V0.334143H3.87815V2.12628Z" fill="black"/>
<path d="M5.865 0.75774L6.45152 2.12628H6.77736L7.3313 0.75774V2.12628H7.75489V0.00830078H7.26613L6.61444 1.57235L5.93017 0.00830078H5.44141V2.12628H5.865V0.75774Z" fill="black"/>
<path d="M32.2584 33.8634C31.2157 33.8634 30.2056 33.7657 29.2281 33.5701C28.7502 33.4833 28.2723 33.3638 27.7944 33.2117C27.3599 33.0814 26.9255 32.9293 26.491 32.7555C26.1652 32.6252 25.8393 32.4731 25.5135 32.2994C25.3506 32.2342 25.1551 32.2342 24.9921 32.2994C24.6663 32.4731 24.3404 32.6252 24.0146 32.7555C23.5801 32.9293 23.1348 33.0922 22.6786 33.2443C22.2007 33.3746 21.7228 33.4833 21.2449 33.5701C20.2674 33.7657 19.2682 33.8634 18.2472 33.8634C17.3783 33.8634 16.5311 33.7982 15.7056 33.6679C15.206 33.581 14.7172 33.4724 14.2393 33.3421C13.7614 33.2117 13.2944 33.0597 12.8382 32.8859C12.4689 32.7556 12.1105 32.6035 11.7629 32.4297C11.6326 32.3645 11.4371 32.3645 11.3067 32.4297C10.9592 32.6035 10.6007 32.7556 10.2315 32.8859C9.77528 33.0597 9.30824 33.2117 8.83033 33.3421C8.33071 33.4724 7.83109 33.581 7.33146 33.6679C6.50599 33.7982 5.66966 33.8634 4.82247 33.8634C4.32285 33.8634 3.82322 33.8417 3.32359 33.7982C2.17228 33.6896 1.06442 33.4507 0 33.0814C0 33.7982 0.488764 34.4173 1.17303 34.5803C1.86816 34.7323 2.58502 34.8409 3.32359 34.9061C3.82322 34.9496 4.32285 34.9713 4.82247 34.9713C6.12584 34.9713 7.39663 34.8409 8.63483 34.5477C9.13446 34.4173 9.63408 34.2653 10.1337 34.0915C10.5247 33.9612 10.9157 33.8091 11.3067 33.6353C11.4697 33.5702 11.6326 33.5702 11.7629 33.6353C12.1539 33.8091 12.5449 33.9612 12.936 34.0915C13.4139 34.2653 13.9026 34.4173 14.4022 34.5477C15.6404 34.8409 16.9438 34.9713 18.2472 34.9713C19.7135 34.9713 21.1472 34.8084 22.4831 34.4173C22.9828 34.287 23.4607 34.1349 23.9169 33.9612C24.2861 33.8308 24.6554 33.6896 25.0247 33.5376C25.1551 33.4398 25.318 33.4398 25.4809 33.5376C25.8285 33.6896 26.1869 33.8308 26.5562 33.9612C27.0341 34.1349 27.512 34.287 27.9899 34.4173C29.3584 34.7758 30.7596 34.9713 32.2584 34.9713C32.7581 34.9713 33.2577 34.9496 33.7573 34.9061C34.4959 34.8409 35.2127 34.7323 35.9079 34.5803C36.5921 34.4173 37.0809 33.7982 37.0809 33.0814C36.0165 33.4507 34.9086 33.6896 33.7573 33.7982C33.2577 33.8417 32.7581 33.8634 32.2584 33.8634Z" fill="black"/>
<path d="M26.6546 36.0465C26.2418 35.9162 25.8399 35.7641 25.4489 35.5904C25.3186 35.5578 25.1557 35.5578 25.0253 35.5904C24.6343 35.7641 24.2325 35.9162 23.8197 36.0465C22.0602 36.6656 20.1703 36.9915 18.2152 36.9915C16.3905 36.9915 14.6635 36.6982 13.0017 36.1769C12.5673 36.0465 12.1437 35.8945 11.731 35.7207C11.6006 35.6881 11.4377 35.6881 11.3074 35.7207C10.8946 35.8945 10.471 36.0465 10.0366 36.1769C8.37478 36.6982 6.64782 36.9915 4.8231 36.9915C4.32347 36.9915 3.82384 36.9698 3.32422 36.9263C3.32422 37.5454 3.84557 38.0668 4.46467 38.0668C4.59501 38.0885 4.71448 38.0993 4.8231 38.0993C7.104 38.0993 9.31973 37.6758 11.34 36.9263C11.4377 36.8611 11.6006 36.8611 11.6984 36.9263C13.7186 37.6758 15.9343 38.0993 18.2152 38.0993C20.6265 38.0993 22.9074 37.6106 25.0253 36.796C25.1557 36.7308 25.286 36.7308 25.4164 36.796C27.5343 37.6106 29.8478 38.0993 32.2591 38.0993C32.3894 38.0993 32.5089 38.0885 32.6175 38.0668C33.2692 38.0668 33.7579 37.5454 33.7579 36.9263C33.2583 36.9698 32.7587 36.9915 32.2591 36.9915C30.304 36.9915 28.4141 36.6656 26.6546 36.0465Z" fill="black"/>
<path fill-rule="evenodd" clip-rule="evenodd" d="M25.8397 11.8691C25.7745 11.8039 25.7419 11.6736 25.7745 11.5758C26.5891 8.77359 26.915 5.77584 26.7194 2.84326C26.7194 2.68034 26.8824 2.61517 27.0127 2.71292C30.043 5.74326 32.2914 9.52303 33.497 13.759L33.7576 14.6388C33.7902 14.7039 33.7576 14.8017 33.6925 14.8343C33.4101 15.1601 33.1385 15.4968 32.8779 15.8444C31.7374 17.2781 30.8576 18.9073 30.2711 20.6669C30.206 20.7972 30.0756 20.8949 29.9127 20.8949C29.1959 20.8624 28.479 20.9275 27.7621 21.0579C27.6318 21.0579 27.5015 20.9927 27.4689 20.8624C27.1105 19.0702 27.6318 17.1152 28.7723 15.8118C28.87 15.6815 28.87 15.5185 28.7723 15.3882C27.8382 14.1934 26.8606 13.0204 25.8397 11.8691ZM27.0127 11.5433C28.1423 12.8032 29.2176 14.1066 30.2386 15.4534C30.3363 15.6163 30.3363 15.8444 30.1734 15.9747C29.0981 16.8871 28.4464 18.223 28.479 19.6893C28.479 19.7545 28.5442 19.8197 28.6093 19.8197C28.8048 19.7979 29.0112 19.7871 29.2284 19.7871C29.3262 19.7871 29.4239 19.7219 29.4565 19.6242C30.1082 17.9298 31.0206 16.3657 32.1284 14.9646C32.237 14.8343 32.3457 14.7148 32.4543 14.6062C32.5194 14.5084 32.552 14.4107 32.5194 14.3129C31.6397 11.0545 30.0756 8.02416 27.9902 5.48258C27.9576 5.41742 27.8599 5.45 27.8599 5.51517C27.7947 7.53539 27.5015 9.49045 26.9801 11.3478C26.9475 11.4129 26.9801 11.4781 27.0127 11.5433Z" fill="black"/>
<path fill-rule="evenodd" clip-rule="evenodd" d="M37.0809 26.7601C35.2236 25.9129 32.9101 26.0106 31.118 27.0207C26.6213 29.3016 21.4404 30.214 16.4225 29.6926C12.9034 29.269 9.22135 30.2466 6.45169 32.169C6.09326 31.6803 6.22359 30.996 6.74494 30.6702C6.83183 30.6267 6.90786 30.5833 6.97303 30.5398C7.10337 30.4747 7.22285 30.4095 7.33146 30.3443C7.52697 30.2357 7.73333 30.138 7.95056 30.0511C9.12359 29.4646 10.3944 29.041 11.6978 28.7803C12.9685 28.5196 14.3371 28.4219 15.673 28.5196C17.0742 28.6174 18.4753 28.7803 19.8764 28.7151C23.2652 28.6499 26.6213 27.8679 29.7169 26.4668C30.0101 26.3365 30.2708 26.2061 30.564 26.0758C30.7596 25.978 30.9225 25.8803 31.0854 25.8151C31.4112 25.6522 31.7371 25.5219 32.0629 25.4241C32.6494 25.2286 33.2685 25.1308 33.8876 25.0983C33.8225 25.0548 33.7573 25.0114 33.6921 24.9679C33.6052 24.9245 33.5292 24.8919 33.464 24.8702C33.312 24.7833 33.1708 24.7072 33.0404 24.6421C32.8449 24.5769 32.6603 24.5117 32.4865 24.4466C32.3996 24.49 32.3127 24.5226 32.2258 24.5443C31.7479 24.7181 31.2592 24.8593 30.7595 24.9679C29.3258 25.2938 27.7618 24.9353 26.8494 23.7949V23.7623C26.5562 23.469 26.3607 23.1106 26.2303 22.7522C26.0348 22.3395 25.8936 21.9267 25.8067 21.514C25.318 19.5915 25.6112 17.5061 26.5888 15.8117C26.6213 15.7792 26.5888 15.714 26.5562 15.6488C22.7112 10.8915 18.1494 6.75332 13.0337 3.36455C12.936 3.29938 12.8056 3.42972 12.8708 3.52747C14.1524 5.56942 15.206 7.73084 16.0315 10.0117C16.0749 10.0769 16.1292 10.1421 16.1944 10.2072C18.2146 11.9016 20.1045 13.7263 21.864 15.6814C22.1573 16.0072 21.8315 16.4634 21.4405 16.3331C20.224 15.9204 18.964 15.6054 17.6607 15.3881C17.5955 15.3556 17.5303 15.4207 17.5629 15.4859C17.9865 17.832 18.2146 20.2758 18.1494 22.7196C18.1494 22.7848 18.2146 22.8499 18.2472 22.8499C19.5723 23.0237 20.8757 23.2953 22.1573 23.6646C22.418 23.7623 22.4506 24.1207 22.1899 24.2511C19.518 25.6522 16.7157 26.8252 13.8483 27.7702C12.9794 28.0526 12.1105 28.3241 11.2416 28.5848C8.76517 29.3016 6.25618 29.823 3.68202 30.214C3.61686 30.2357 3.55168 30.2466 3.48652 30.2466C2.31348 30.4204 1.15131 30.5616 0 30.6702C0 30.0185 0.488764 29.432 1.17303 29.3668C3.95356 29.0627 6.65805 28.5739 9.28652 27.9005C12.1213 27.1511 14.8584 26.2387 17.5303 25.1308C18.182 24.8484 18.8337 24.5552 19.4854 24.2511C19.5506 24.2511 19.518 24.1859 19.4854 24.1533C18.7251 24.023 17.9648 23.9144 17.2045 23.8275C17.009 23.8275 16.8787 23.6646 16.9112 23.469C17.3022 20.4061 16.8135 17.278 16.1618 14.3129C16.1292 14.1825 16.227 14.0522 16.3573 14.0848C17.2371 14.1825 18.0843 14.3129 18.9315 14.5084C19.0618 14.5084 19.127 14.378 19.0292 14.3129C17.8562 13.1398 16.6288 12.0211 15.3472 10.9567C15.2169 10.8481 15.1191 10.7069 15.0539 10.5331C13.7506 6.88365 11.7955 3.49489 9.35168 0.497136C9.15618 0.236462 9.44944 -0.121968 9.74269 0.0409532C16.7483 3.95107 22.9393 9.22972 27.8921 15.4859C27.9573 15.5837 27.9573 15.714 27.8921 15.8117C26.8169 17.3106 26.4258 19.2983 26.8494 21.123C26.8929 21.3837 26.9581 21.6335 27.0449 21.8724C27.0667 21.8724 27.0775 21.8724 27.0775 21.8724C27.1644 21.8507 27.2622 21.829 27.3708 21.8072C28.5764 21.514 29.8472 21.4488 31.0528 21.6443C31.118 21.666 31.194 21.6769 31.2809 21.6769C32.0955 21.8724 32.7798 22.3612 33.2034 23.0455C33.2034 23.0672 33.2142 23.0889 33.236 23.1106C33.3228 23.2844 33.3989 23.4582 33.464 23.632C33.7247 23.7406 33.9854 23.8709 34.2461 24.023C35.3213 24.6095 36.2663 25.4893 36.918 26.532C36.9831 26.6189 37.0375 26.6949 37.0809 26.7601ZM30.9225 23.4039C30.336 23.4039 30.336 24.2837 30.9225 24.2837C31.509 24.2837 31.509 23.4039 30.9225 23.4039Z" fill="black"/>
</svg>
